<?xml version="1.0" encoding="utf-8"?>
<!-- Generator: Adobe Illustrator 16.0.0, SVG Export Plug-In . SVG Version: 6.00 Build 0)  -->
<!DOCTYPE svg PUBLIC "-//W3C//DTD SVG 1.1//EN" "http://www.w3.org/Graphics/SVG/1.1/DTD/svg11.dtd">
<svg version="1.1" id="Layer_1" xmlns="http://www.w3.org/2000/svg" xmlns:xlink="http://www.w3.org/1999/xlink" x="0px" y="0px"
	 width="64px" height="64px"
	 viewBox="0 0 150 150" enable-background="new 0 0 150 150" xml:space="preserve">
<g>
	<path fill-rule="evenodd" clip-rule="evenodd" fill="none" stroke="#231566" stroke-width="5" stroke-miterlimit="10" d="
		M53.771,20.033c31.073-12.005,65.418,3.012,77.307,33.802c11.952,30.958-3.349,65.196-34.498,77.194
		c-30.645,11.804-64.943-3.536-76.872-34.38C7.981,66.323,23.332,31.793,53.771,20.033z"/>
	<path fill-rule="evenodd" clip-rule="evenodd" fill="#FFFFFF" d="M33.205,43.388c0.04,14.082,3.244,27.31,9.577,40.364
		c-3.348-1.009-6.301-1.899-9.252-2.789c9.384,6.58,18.371,13.882,30.245,15.382c-9.873-3.636-13.821-10.151-14.71-16.341
		c0.989,0.672,1.851,1.232,2.685,1.83c5.685,4.076,11.961,6.107,18.979,5.269c3.131-0.374,6.3-0.786,9.318-1.648
		c3.837-1.096,7.541-1.115,11.137,0.469c2.159,0.951,4.113,2.368,5.856,3.396c-0.775-4.172-1.238-8.502-2.474-12.599
		c-0.703-2.333-2.314-4.678-4.138-6.333c-4.137-3.751-9.664-4.776-14.793-6.485c-7.673-2.556-14.116-6.749-18.944-13.35
		c-3.647-4.985-5.719-10.679-7.83-16.382c-0.629-1.701-1.466-3.325-2.217-5.004c-8.941,4.846-9.57,15.391-5.3,22.168
		c2.835,4.5,6.678,8.067,11.286,10.495c9.091,4.79,18.407,9.154,27.617,13.719c1.527,0.757,2.994,1.637,4.487,2.46
		c-0.13,0.206-0.261,0.413-0.391,0.619C60.642,76.711,43.165,65.692,33.205,43.388z M102.661,83.493
		c2.423-0.106,4.085-0.176,5.748-0.251c2.41-0.109,3.743,1.087,4.322,3.38c0.395,1.563,0.854,3.133,1.499,4.607
		c1.332,3.049,3.543,5.306,6.866,6.009c5.061,1.07,6.112,0.875,7.111-5.373c-6.268,0.541-7.592-5.79-12.595-8.17
		c5.891-1.802,9.494,2.946,14.415,2.953c0.318-2.724,0.614-5.256,0.957-8.192c-3.573,0-6.793,0-10.183,0
		c-0.063-0.263-0.157-0.902-0.366-1.5c-1.276-3.657-7.336-5.497-9.646-2.534c-1.942,2.494-3.835,1.991-6.103,1.573
		c-0.833-0.153-1.671-0.273-2.506-0.408c-0.071,0.166-0.143,0.333-0.214,0.5c1.959,1.167,3.918,2.333,6.127,3.646
		C106.345,80.943,104.797,82.014,102.661,83.493z M95.514,126.662c1.228-0.536,2.87-1.374,4.593-1.975
		c1.778-0.622,2.051-1.733,1.702-3.406c-0.804-3.848-3.297-6.384-6.313-8.594c-2.444-1.792-2.685-2.784-1.564-5.593
		c0.675-1.695,1.357-3.385,2.113-5.266c-1.883,1.446-3.556,2.731-5.805,4.459c-0.482-2.868-0.842-5.007-1.311-7.797
		c-0.628,2.611-1.11,4.612-1.605,6.663c-2.905,0.327-5.052,1.609-5.659,4.554c-0.649,3.153,0.264,5.764,3.379,7.447
		c-3.494,3.704-4.757,7.949-4.319,12.775c8.269-0.21,9.104-1.043,8.392-8.073c-0.088-0.878-0.09-1.803,0.078-2.664
		c0.308-1.577,0.774-3.122,1.173-4.679c0.232,0.036,0.463,0.073,0.695,0.11c0.723,1.933,1.452,3.864,2.167,5.801
		C93.961,122.399,94.679,124.381,95.514,126.662z M98.502,95.436c0.121,0.326,0.132,0.522,0.235,0.607
		c1.25,1.029,2.529,2.021,3.768,3.062c2.215,1.86,2.493,3.17,1.256,5.718c-0.387,0.801-0.835,1.576-1.196,2.388
		c-1.586,3.566-2.083,7.124,0.033,10.698c2.196,3.711,3.004,3.905,6.433,1.347c0.501-0.374,0.939-0.831,1.501-1.333
		c-3.189-3.984-0.736-8.681-2.441-13.231c0.974,0.421,1.594,0.485,1.806,0.814c1.775,2.738,3.476,5.526,5.329,8.507
		c1.613-1.873,3.317-3.85,5.243-6.083c-1.98-1.216-3.607-2.216-5.333-3.276c0.285-0.571,0.596-1.116,0.838-1.69
		c1.579-3.741-1.534-9.024-5.473-8.473c-2.9,0.404-4.04-0.892-5.391-2.69c-0.413-0.549-0.933-1.019-1.403-1.525
		c-0.141,0.068-0.282,0.137-0.423,0.206c0.528,1.953,1.057,3.906,1.667,6.166C102.649,96.216,100.625,95.835,98.502,95.436z"/>
	<path fill-rule="evenodd" clip-rule="evenodd" fill="#241962" d="M33.205,43.388c9.959,22.304,27.437,33.323,51.138,35.241
		c0.13-0.206,0.261-0.413,0.391-0.619c-1.493-0.823-2.96-1.704-4.487-2.46c-9.209-4.565-18.525-8.93-27.617-13.719
		c-4.608-2.428-8.451-5.995-11.286-10.495c-4.27-6.778-3.641-17.323,5.3-22.168c0.751,1.68,1.588,3.304,2.217,5.004
		c2.11,5.703,4.182,11.397,7.83,16.382c4.828,6.602,11.271,10.794,18.944,13.35c5.129,1.708,10.656,2.733,14.793,6.485
		c1.824,1.655,3.435,4,4.138,6.333c1.236,4.096,1.699,8.427,2.474,12.599c-1.743-1.029-3.697-2.446-5.856-3.396
		c-3.596-1.584-7.299-1.565-11.137-0.469c-3.019,0.862-6.188,1.274-9.318,1.648c-7.019,0.839-13.295-1.193-18.979-5.269
		c-0.834-0.598-1.696-1.158-2.685-1.83c0.889,6.19,4.837,12.705,14.71,16.341c-11.874-1.5-20.861-8.802-30.245-15.382
		c2.952,0.89,5.905,1.78,9.252,2.789C36.449,70.698,33.245,57.47,33.205,43.388z"/>
	<path fill-rule="evenodd" clip-rule="evenodd" fill="#241962" d="M102.661,83.493c2.136-1.479,3.684-2.55,5.432-3.76
		c-2.209-1.314-4.168-2.48-6.127-3.646c0.072-0.166,0.143-0.333,0.214-0.5c0.835,0.135,1.674,0.255,2.506,0.408
		c2.268,0.418,4.16,0.92,6.103-1.573c2.309-2.963,8.369-1.123,9.646,2.534c0.209,0.598,0.303,1.237,0.366,1.5
		c3.39,0,6.61,0,10.183,0c-0.343,2.936-0.638,5.468-0.957,8.192c-4.92-0.007-8.523-4.755-14.415-2.953
		c5.003,2.38,6.327,8.711,12.595,8.17c-0.999,6.248-2.05,6.442-7.111,5.373c-3.323-0.703-5.534-2.959-6.866-6.009
		c-0.645-1.475-1.104-3.044-1.499-4.607c-0.58-2.292-1.913-3.489-4.322-3.38C106.746,83.317,105.084,83.387,102.661,83.493z"/>
	<path fill-rule="evenodd" clip-rule="evenodd" fill="#241962" d="M95.514,126.662c-0.835-2.281-1.553-4.262-2.284-6.238
		c-0.716-1.937-1.445-3.868-2.167-5.801c-0.232-0.038-0.463-0.075-0.695-0.11c-0.399,1.558-0.865,3.103-1.173,4.679
		c-0.168,0.861-0.166,1.786-0.078,2.664c0.713,7.03-0.123,7.863-8.392,8.073c-0.438-4.826,0.825-9.071,4.319-12.775
		c-3.115-1.683-4.028-4.294-3.379-7.447c0.607-2.945,2.754-4.228,5.659-4.554c0.495-2.05,0.977-4.051,1.605-6.663
		c0.469,2.79,0.829,4.93,1.311,7.797c2.249-1.728,3.921-3.013,5.805-4.459c-0.755,1.881-1.438,3.571-2.113,5.266
		c-1.121,2.809-0.88,3.802,1.564,5.593c3.016,2.21,5.509,4.746,6.313,8.594c0.35,1.673,0.076,2.784-1.702,3.406
		C98.384,125.288,96.742,126.125,95.514,126.662z"/>
	<path fill-rule="evenodd" clip-rule="evenodd" fill="#241962" d="M98.502,95.436c2.122,0.399,4.147,0.78,6.448,1.212
		c-0.611-2.26-1.139-4.212-1.667-6.166c0.141-0.069,0.282-0.138,0.423-0.206c0.471,0.506,0.99,0.976,1.403,1.525
		c1.351,1.798,2.491,3.094,5.391,2.69c3.939-0.551,7.052,4.732,5.473,8.473c-0.242,0.574-0.553,1.119-0.838,1.69
		c1.727,1.06,3.354,2.06,5.333,3.276c-1.926,2.233-3.63,4.21-5.243,6.083c-1.853-2.981-3.554-5.769-5.329-8.507
		c-0.212-0.329-0.832-0.393-1.806-0.814c1.705,4.55-0.749,9.248,2.441,13.231c-0.562,0.501-1,0.958-1.501,1.333
		c-3.428,2.559-4.236,2.365-6.433-1.347c-2.116-3.574-1.619-7.131-0.033-10.698c0.361-0.812,0.809-1.587,1.196-2.388
		c1.237-2.548,0.958-3.858-1.256-5.718c-1.239-1.041-2.519-2.033-3.768-3.062C98.634,95.958,98.624,95.762,98.502,95.436z"/>
	<polygon fill-rule="evenodd" clip-rule="evenodd" fill="#E21222" points="143.147,77.713 141.489,76.909 139.887,77.82 
		140.139,75.995 138.777,74.752 140.592,74.427 141.353,72.749 142.222,74.375 144.053,74.58 142.776,75.908 	"/>
	<polygon fill-rule="evenodd" clip-rule="evenodd" fill="#E21222" points="9.279,72.829 10.095,74.483 11.918,74.747 10.599,76.033 
		10.91,77.85 9.279,76.992 7.648,77.85 7.96,76.033 6.64,74.747 8.464,74.483 	"/>
</g>
<circle fill="none" cx="75.594" cy="75.85" r="58.06"/>
<text transform="matrix(0.3924 0.9198 -0.9198 0.3924 7.3662 101.1392)"><tspan x="0" y="0" fill="#E21222" font-family="'MyriadPro-Bold'" font-size="13.6302">L</tspan><tspan x="10.218" y="-0.149" fill="#E21222" font-family="'MyriadPro-Bold'" font-size="13.6302" rotate="-9.174">O</tspan><tspan x="23.281" y="-2.621" fill="#E21222" font-family="'MyriadPro-Bold'" font-size="13.6302" rotate="-19.187">V</tspan><tspan x="34.254" y="-6.739" fill="#E21222" font-family="'MyriadPro-Bold'" font-size="13.6302" rotate="-27.836">E</tspan><tspan x="42.286" y="-11.204" fill="#E21222" font-family="'MyriadPro-Bold'" font-size="13.6302" rotate="-33.286"> </tspan><tspan x="46.519" y="-13.928" fill="#E21222" font-family="'MyriadPro-Bold'" font-size="13.6302" rotate="-39.689">A</tspan><tspan x="55.563" y="-21.836" fill="#E21222" font-family="'MyriadPro-Bold'" font-size="13.6302" rotate="-48.423">L</tspan><tspan x="61.85" y="-29.197" fill="#E21222" font-family="'MyriadPro-Bold'" font-size="13.6302" rotate="-56.096">L</tspan><tspan x="66.629" y="-36.642" fill="#E21222" font-family="'MyriadPro-Bold'" font-size="13.6302" rotate="-61.416"> </tspan><tspan x="68.716" y="-40.503" fill="#E21222" font-family="'MyriadPro-Bold'" font-size="13.6302" rotate="-65.969">S</tspan><tspan x="72.693" y="-50.153" fill="#E21222" font-family="'MyriadPro-Bold'" font-size="13.6302" rotate="-74.775">E</tspan><tspan x="75.202" y="-60.084" fill="#E21222" font-family="'MyriadPro-Bold'" font-size="13.6302" rotate="-83.199">R</tspan><tspan x="76.307" y="-71.361" fill="#E21222" font-family="'MyriadPro-Bold'" font-size="13.6302" rotate="-92.408">V</tspan><tspan x="75.52" y="-83.117" fill="#E21222" font-family="'MyriadPro-Bold'" font-size="13.6302" rotate="-101.157">E</tspan><tspan x="73.548" y="-92.091" fill="#E21222" font-family="'MyriadPro-Bold'" font-size="13.6302" rotate="-106.602"> </tspan><tspan x="72.164" y="-96.895" fill="#E21222" font-family="'MyriadPro-Bold'" font-size="13.6302" rotate="-112.945">A</tspan><tspan x="67.222" y="-107.795" fill="#E21222" font-family="'MyriadPro-Bold'" font-size="13.6302" rotate="-121.566">L</tspan><tspan x="62.022" y="-115.919" fill="#E21222" font-family="'MyriadPro-Bold'" font-size="13.6302" rotate="-129.169">L</tspan></text>
<circle fill-rule="evenodd" clip-rule="evenodd" fill="none" cx="75.594" cy="75.42" r="58.384"/>
<text transform="matrix(0.5351 -0.8448 0.8448 0.5351 20.1665 44.6865)"><tspan x="0" y="0" fill="#E21222" font-family="'MyriadPro-Bold'" font-size="13.6302">S</tspan><tspan x="7.742" y="-0.027" fill="#E21222" font-family="'MyriadPro-Bold'" font-size="13.6302" rotate="7.76">A</tspan><tspan x="16.969" y="1.291" fill="#E21222" font-family="'MyriadPro-Bold'" font-size="13.6302" rotate="15.764">R</tspan><tspan x="25.12" y="3.595" fill="#E21222" font-family="'MyriadPro-Bold'" font-size="13.6302" rotate="23.603">V</tspan><tspan x="33.42" y="7.241" fill="#E21222" font-family="'MyriadPro-Bold'" font-size="13.6302" rotate="31.957">A</tspan><tspan x="41.152" y="12.259" fill="#E21222" font-family="'MyriadPro-Bold'" font-size="13.6302" rotate="37.544"> </tspan><tspan x="43.6" y="13.997" fill="#E21222" font-family="'MyriadPro-Bold'" font-size="13.6302" rotate="42.763">B</tspan><tspan x="49.956" y="19.84" fill="#E21222" font-family="'MyriadPro-Bold'" font-size="13.6302" rotate="51.271">O</tspan><tspan x="56.163" y="27.823" fill="#E21222" font-family="'MyriadPro-Bold'" font-size="13.6302" rotate="58.513">J</tspan><tspan x="59.339" y="32.86" fill="#E21222" font-family="'MyriadPro-Bold'" font-size="13.6302" rotate="65.366">A</tspan><tspan x="63.218" y="41.347" fill="#E21222" font-family="'MyriadPro-Bold'" font-size="13.6302" rotate="73.983">N</tspan><tspan x="65.714" y="50.693" fill="#E21222" font-family="'MyriadPro-Bold'" font-size="13.6302" rotate="79.739"> </tspan><tspan x="66.223" y="53.526" fill="#E21222" font-family="'MyriadPro-Bold'" font-size="13.6302" rotate="82.357"> </tspan><tspan x="66.712" y="56.488" fill="#E21222" font-family="'MyriadPro-Bold'" font-size="13.6302" rotate="87.234">T</tspan><tspan x="67.087" y="64.28" fill="#E21222" font-family="'MyriadPro-Bold'" font-size="13.6302" rotate="94.618">R</tspan><tspan x="66.413" y="72.762" fill="#E21222" font-family="'MyriadPro-Bold'" font-size="13.6302" rotate="102.863">U</tspan><tspan x="64.178" y="82.15" fill="#E21222" font-family="'MyriadPro-Bold'" font-size="13.6302" rotate="110.618">S</tspan><tspan x="61.455" y="89.341" fill="#E21222" font-family="'MyriadPro-Bold'" font-size="13.6302" rotate="117.614">T</tspan></text>
</svg>
